<mxfile host="app.diagrams.net" modified="2024-05-04T18:33:33.718Z" agent="Mozilla/5.0 (Windows NT 10.0; Win64; x64) AppleWebKit/537.36 (KHTML, like Gecko) Chrome/124.0.0.0 Safari/537.36" version="24.3.1" etag="1YptEbEzvPW8dLiICsmb" type="github">
  <diagram name="Page-1" id="Bo2V8NgvLep2A5v_ch7s">
    <mxGraphModel>
      <root>
        <mxCell id="0" />
        <mxCell id="1" parent="0" />
      </root>
    </mxGraphModel>
  </diagram>
</mxfile>
